<?xml version="1.0" encoding="UTF-8"?>
<svg xmlns="http://www.w3.org/2000/svg" xmlns:xlink="http://www.w3.org/1999/xlink" viewBox="0 0 480 480" width="480px" height="480px">
<g id="surface650576">
<path style=" stroke:none;fill-rule:nonzero;fill:rgb(80.000001%,80.000001%,80.000001%);fill-opacity:1;" d="M 165 50 C 129.160156 50 100 79.160156 100 115 L 100 415 C 100 420.628906 103.152344 425.800781 108.164062 428.359375 C 113.175781 430.929688 119.191406 430.457031 123.769531 427.167969 L 220.390625 357.597656 C 220.242188 355.066406 220 352.570312 220 350 C 220 278.320312 278.320312 220 350 220 C 360.339844 220 370.351562 221.34375 380 223.632812 L 380 115 C 380 79.160156 350.839844 50 315 50 Z M 350 240 C 289.25 240 240 289.25 240 350 C 240 410.75 289.25 460 350 460 C 410.75 460 460 410.75 460 350 C 460 289.25 410.75 240 350 240 Z M 350 280 C 354.800781 280 359.085938 283.058594 360.644531 287.597656 L 371.777344 320 L 408.75 320 C 413.578125 320 417.875 323.085938 419.414062 327.65625 C 420.953125 332.234375 419.398438 337.292969 415.546875 340.214844 L 385.605469 362.929688 L 395.742188 395.390625 C 397.203125 400.050781 395.484375 405.109375 391.503906 407.929688 C 389.554688 409.308594 387.269531 410 385 410 C 382.628906 410 380.25 409.253906 378.261719 407.753906 L 350 386.601562 L 321.738281 407.753906 C 317.828125 410.683594 312.484375 410.769531 308.496094 407.949219 C 304.515625 405.128906 302.796875 400.050781 304.257812 395.390625 L 314.394531 362.949219 L 284.453125 340.214844 C 280.601562 337.292969 279.046875 332.253906 280.585938 327.675781 C 282.136719 323.097656 286.421875 320 291.25 320 L 328.222656 320 L 339.355469 287.597656 C 340.914062 283.058594 345.199219 280 350 280 Z M 350 280 "/>
</g>
</svg>
