<?xml version="1.0" encoding="UTF-8"?>
<svg xmlns="http://www.w3.org/2000/svg" xmlns:xlink="http://www.w3.org/1999/xlink" viewBox="0 0 480 480" width="480px" height="480px">
<g id="surface1098380">
<path style=" stroke:none;fill-rule:nonzero;fill:rgb(80.000001%,80.000001%,80.000001%);fill-opacity:1;" d="M 240 0 C 118.515625 0 20 89.53125 20 200 C 20 310.46875 118.515625 400 240 400 L 240 480 C 240 480 460 372.8125 460 200 C 460 89.53125 361.484375 0 240 0 Z M 264.453125 302.5 L 215.546875 302.5 L 215.546875 163.203125 L 264.453125 163.203125 Z M 240.078125 123.984375 C 213.59375 123.984375 213.4375 104.453125 213.4375 99.921875 C 213.4375 95.3125 213.4375 76.015625 240.078125 76.015625 C 266.796875 76.015625 266.71875 95.3125 266.71875 99.921875 C 266.71875 104.453125 266.5625 123.984375 240.078125 123.984375 Z M 240.078125 123.984375 "/>
</g>
</svg>
