<?xml version="1.0" encoding="UTF-8"?>
<svg xmlns="http://www.w3.org/2000/svg" xmlns:xlink="http://www.w3.org/1999/xlink" viewBox="0 0 480 480" width="480px" height="480px">
<g id="surface1194719">
<path style=" stroke:none;fill-rule:nonzero;fill:rgb(80.000001%,80.000001%,80.000001%);fill-opacity:1;" d="M 80 60 C 58 60 40 78 40 100 L 40 340 L 100 280 L 280 280 C 302 280 320 262 320 240 L 320 100 C 320 78 302 60 280 60 Z M 360 160 L 360 240 C 360 284.121094 324.121094 320 280 320 L 160 320 L 160 340 C 160 362 178 380 200 380 L 380 380 L 440 440 L 440 200 C 440 178 422 160 400 160 Z M 360 160 "/>
</g>
</svg>
