<?xml version="1.0" encoding="UTF-8"?>
<svg xmlns="http://www.w3.org/2000/svg" xmlns:xlink="http://www.w3.org/1999/xlink" viewBox="0 0 480 480" width="480px" height="480px">
<g id="surface955371">
<path style=" stroke:none;fill-rule:nonzero;fill:rgb(80.000001%,80.000001%,80.000001%);fill-opacity:1;" d="M 321.289062 40 C 318.710938 40 316.550781 41.933594 316.25 44.492188 L 313.90625 64.726562 C 304.226562 68.085938 295.476562 73.195312 287.890625 79.765625 L 269.140625 71.679688 C 266.78125 70.660156 264.054688 71.550781 262.773438 73.789062 L 244.023438 106.210938 C 242.722656 108.429688 243.332031 111.273438 245.390625 112.8125 L 261.5625 124.804688 C 260.613281 129.730469 260 134.796875 260 140 C 260 145.203125 260.613281 150.269531 261.5625 155.195312 L 245.390625 167.1875 C 243.332031 168.707031 242.742188 171.550781 244.023438 173.789062 L 262.773438 206.210938 C 264.054688 208.449219 266.78125 209.378906 269.140625 208.359375 L 287.890625 200.234375 C 295.476562 206.804688 304.226562 211.914062 313.90625 215.273438 L 316.25 235.507812 C 316.550781 238.066406 318.710938 240 321.289062 240 L 358.710938 240 C 361.289062 240 363.449219 238.066406 363.75 235.507812 L 366.09375 215.273438 C 375.785156 211.910156 384.554688 206.8125 392.148438 200.234375 L 410.859375 208.28125 C 413.21875 209.300781 415.945312 208.410156 417.226562 206.171875 L 435.976562 173.75 C 437.277344 171.53125 436.667969 168.6875 434.609375 167.148438 L 418.476562 155.15625 C 419.417969 150.242188 420 145.1875 420 140 C 420 134.796875 419.386719 129.730469 418.4375 124.804688 L 434.609375 112.8125 C 436.667969 111.292969 437.257812 108.449219 435.976562 106.210938 L 417.226562 73.789062 C 415.945312 71.550781 413.21875 70.621094 410.859375 71.640625 L 392.109375 79.765625 C 384.523438 73.195312 375.773438 68.085938 366.09375 64.726562 L 363.75 44.492188 C 363.449219 41.933594 361.289062 40 358.710938 40 Z M 340 105 C 359.320312 105 375 120.679688 375 140 C 375 159.339844 359.320312 175 340 175 C 320.679688 175 305 159.339844 305 140 C 305 120.679688 320.679688 105 340 105 Z M 141.289062 180 C 138.710938 180 136.550781 181.933594 136.25 184.492188 L 132.773438 214.21875 C 116.628906 218.8125 102.054688 227.046875 90.351562 238.4375 L 63.164062 226.71875 C 60.804688 225.699219 58.078125 226.589844 56.796875 228.828125 L 38.046875 261.25 C 36.746094 263.46875 37.355469 266.3125 39.414062 267.851562 L 63.359375 285.585938 C 61.375 293.441406 60 301.53125 60 310 C 60 318.46875 61.375 326.558594 63.359375 334.414062 L 39.414062 352.1875 C 37.355469 353.707031 36.765625 356.550781 38.046875 358.789062 L 56.796875 391.210938 C 58.078125 393.449219 60.804688 394.339844 63.164062 393.320312 L 90.351562 381.5625 C 102.054688 392.953125 116.628906 401.1875 132.773438 405.78125 L 136.25 435.507812 C 136.550781 438.066406 138.710938 440 141.289062 440 L 178.710938 440 C 181.289062 440 183.449219 438.066406 183.75 435.507812 L 187.226562 405.78125 C 203.371094 401.1875 217.945312 392.953125 229.648438 381.5625 L 256.835938 393.28125 C 259.195312 394.300781 261.921875 393.410156 263.203125 391.171875 L 281.953125 358.75 C 283.253906 356.53125 282.644531 353.6875 280.585938 352.148438 L 256.640625 334.414062 C 258.625 326.558594 260 318.46875 260 310 C 260 301.53125 258.625 293.441406 256.640625 285.585938 L 280.585938 267.8125 C 282.644531 266.292969 283.234375 263.449219 281.953125 261.210938 L 263.203125 228.789062 C 261.921875 226.550781 259.195312 225.660156 256.835938 226.679688 L 229.648438 238.4375 C 217.945312 227.046875 203.371094 218.8125 187.226562 214.21875 L 183.75 184.492188 C 183.449219 181.933594 181.289062 180 178.710938 180 Z M 160 270 C 182.101562 270 200 287.898438 200 310 C 200 332.101562 182.101562 350 160 350 C 137.898438 350 120 332.101562 120 310 C 120 287.898438 137.898438 270 160 270 Z M 160 270 "/>
</g>
</svg>
